<svg width="1478" height="1792" viewBox="0 0 1478 1792" fill="none" xmlns="http://www.w3.org/2000/svg">
<g clip-path="url(#clip0_1063_42)">
<path fill-rule="evenodd" clip-rule="evenodd" d="M178.884 1223.46L213.703 1264.69C214.723 1262.93 216.005 1258.14 216.407 1259.2C219.342 1266.84 220.485 1249.81 221.288 1247.97C229.692 1228.66 220.639 1241.93 230.619 1228.85C233.909 1191.74 247.055 1160.96 262.425 1130.8C288.578 1079.47 312.692 1055.53 350.771 1024.97C363.005 1015.15 374.684 1010.02 391.738 1001.37L463.909 973.314C466.118 972.449 472.637 969.73 474.707 968.695C486.154 963.041 483.08 964.926 490.201 959.241C329.19 824.074 398.55 409.999 739.326 413.506C1018.14 416.379 1177.42 757.68 992.328 961.512C1013.94 976.558 1058.88 980.945 1086.39 994.014C1115.51 1007.86 1147.84 1028 1167.74 1042.72C1208.97 1073.23 1253.12 1158.19 1262.29 1214.5C1271.56 1228.8 1260.33 1212.55 1269.26 1227.6L1275.84 1238.21C1276.72 1239.6 1278.28 1242.01 1279.66 1243.8C1291.55 1214.7 1287.12 1222.21 1305.9 1207.56C1334.94 1184.68 1387.19 1095.97 1408.52 1049.76C1506.03 838.626 1499.06 598.244 1398.43 402.831C1342.94 295.084 1248.98 186.116 1149.34 121.189C769.743 -126.144 271.169 21.7834 76.4507 413.351C14.9998 536.902 -16.1736 699.967 8.46546 859.727C19.8041 933.212 43.3618 1002.74 71.492 1062.74C93.7058 1110.13 148.591 1198.96 178.884 1223.44V1223.46Z" fill="#2F353F"/>
<path fill-rule="evenodd" clip-rule="evenodd" d="M601.564 1660.09C611.853 1681.16 616.811 1685.95 639.689 1696.9C678.911 1654.8 711.258 1621.95 748.843 1580.93C771.195 1556.54 833.388 1482.24 861.024 1474.68L841.312 1404.61C823.872 1434.81 752.89 1506.03 721.577 1531.82C696.629 1552.37 618.665 1633.08 601.58 1660.1L601.564 1660.09Z" fill="#0091FD"/>
<path fill-rule="evenodd" clip-rule="evenodd" d="M620.44 1484.99L588.68 1605.06C600.389 1597.23 593.314 1602.51 602.922 1593.74C648.879 1551.78 792.836 1375.99 833.139 1362.5L811.821 1294.83C791.044 1326.05 747.436 1367.51 720.835 1394.9L651.397 1468.84C625.8 1491.94 648.941 1478.93 620.456 1484.99H620.44Z" fill="#0091FD"/>
<path fill-rule="evenodd" clip-rule="evenodd" d="M588.68 1605.05C578.824 1637.06 582.053 1642.85 601.548 1660.07C618.618 1633.05 696.597 1552.36 721.545 1531.79C752.873 1506 823.855 1434.78 841.28 1404.58L833.124 1362.47C792.821 1375.97 648.864 1551.77 602.907 1593.71C593.299 1602.47 600.374 1597.2 588.665 1605.03L588.68 1605.05Z" fill="#0069DD"/>
<path fill-rule="evenodd" clip-rule="evenodd" d="M663.309 1724.12L707.103 1770.48C726.212 1728.43 761.479 1699.48 795.896 1671.05C826.251 1645.97 854.875 1597.04 890.22 1584.89L868.686 1513.29C841.884 1550.92 803.295 1585.91 772.261 1618.5C741.798 1650.51 700.491 1703.26 663.309 1724.13V1724.12Z" fill="#0091FD"/>
<path fill-rule="evenodd" clip-rule="evenodd" d="M705.711 1125.55C723.584 1134.16 745.257 1137.94 775.906 1129.66C809.674 1117.21 840.554 1085.62 831.347 1041.73C800.236 1035.29 771.148 1037.67 739.264 1037.56C725.546 1037.52 708.925 1036.59 695.732 1036.97C690.372 1037.13 679.991 1037.48 675.001 1038.5C617.582 1050.18 661.516 1111.9 705.711 1125.55Z" fill="#0069DD"/>
<path fill-rule="evenodd" clip-rule="evenodd" d="M707.102 1770.48C741.673 1833.09 808.191 1741 829.046 1718.39C867.155 1677.05 908.4 1662.36 890.218 1584.87C854.874 1597.03 826.249 1645.95 795.895 1671.04C761.477 1699.48 726.21 1728.43 707.102 1770.46V1770.48Z" fill="#0069DD"/>
<path fill-rule="evenodd" clip-rule="evenodd" d="M639.688 1696.9C643.89 1710.77 631.547 1693.92 648.277 1712.61C658.998 1724.6 656.882 1720.38 663.323 1724.12C700.506 1703.25 741.813 1650.49 772.276 1618.49C803.31 1585.89 841.898 1550.9 868.7 1513.27L861.023 1474.68C833.387 1482.24 771.194 1556.54 748.842 1580.93C711.257 1621.95 678.91 1654.8 639.688 1696.9Z" fill="#0069DD"/>
<path fill-rule="evenodd" clip-rule="evenodd" d="M675.358 1286.1L668.406 1301.93L666.244 1302.64L637.604 1414.67C692.798 1383.2 751.005 1281.64 802.909 1253.89L783.445 1182.8L681.49 1298.46C674.137 1290.76 673.226 1312.5 675.342 1286.08L675.358 1286.1Z" fill="#0091FD"/>
<path fill-rule="evenodd" clip-rule="evenodd" d="M637.604 1414.67L620.457 1484.99C648.943 1478.93 625.802 1491.94 651.399 1468.85L720.836 1394.9C747.437 1367.51 791.046 1326.05 811.823 1294.83L802.91 1253.89C751.005 1281.63 692.783 1383.2 637.604 1414.67Z" fill="#0069DD"/>
<path fill-rule="evenodd" clip-rule="evenodd" d="M687.205 1224.35L675.356 1286.08C673.24 1312.5 674.151 1290.75 681.505 1298.46L783.459 1182.8L775.349 1145.34C740.746 1154.72 720.896 1201.71 687.205 1224.37V1224.35Z" fill="#0069DD"/>
<path fill-rule="evenodd" clip-rule="evenodd" d="M687.205 1224.35C720.896 1201.71 740.731 1154.7 775.35 1145.32L775.921 1129.64C745.257 1137.92 723.6 1134.12 705.727 1125.54C709.311 1135.79 709.929 1129.49 708.106 1145.57C707.967 1146.84 701.448 1171.03 700.614 1174.01C695.531 1192.1 691.5 1206.85 687.221 1224.35H687.205Z" fill="#0091FD"/>
<path fill-rule="evenodd" clip-rule="evenodd" d="M1305.89 1207.56C1287.1 1222.22 1291.55 1214.7 1279.64 1243.8C1278.27 1242.01 1276.71 1239.62 1275.82 1238.21L1269.24 1227.6C1260.32 1212.55 1271.53 1228.82 1262.28 1214.5C1262.99 1231.57 1264.83 1239.96 1266.03 1252.27C1294.12 1238.89 1270.02 1261.91 1291.66 1234.27C1297.25 1227.13 1300.08 1218.72 1305.89 1207.55V1207.56Z" fill="#84878B"/>
<path fill-rule="evenodd" clip-rule="evenodd" d="M230.619 1228.87C220.64 1241.95 229.708 1228.68 221.289 1247.99C220.485 1249.83 219.358 1266.84 216.407 1259.22C215.99 1258.15 214.723 1262.94 213.704 1264.7L178.885 1223.47C187.118 1237.76 187.366 1240.48 197.592 1252.16C214.245 1271.16 204.435 1262.23 226.309 1271.61L230.604 1228.88L230.619 1228.87Z" fill="#84878B"/>
</g>
<defs>
<clipPath id="clip0_1063_42">
<rect width="1477.91" height="1791.94" fill="white"/>
</clipPath>
</defs>
</svg>
