<svg width="599" height="599" viewBox="0 0 599 599" fill="none" xmlns="http://www.w3.org/2000/svg">
<path d="M530.596 0C568.374 6.4426e-07 599 30.6256 599 68.4043V530.596C599 568.374 568.374 599 530.596 599H68.4043C30.6256 599 1.51179e-05 568.374 0 530.596V68.4043C6.44344e-07 30.6256 30.6256 1.51159e-05 68.4043 0H530.596ZM190.176 181.058C152.944 181.058 117.235 195.848 90.9082 222.176C64.5813 248.503 49.7911 284.21 49.791 321.442C49.7911 358.675 64.5811 394.383 90.9082 420.71L174.624 504.426C175.279 505.08 175.726 505.523 176.077 505.874V404.504C136.255 397.808 105.915 363.168 105.915 321.442C105.915 274.923 143.626 237.212 190.146 237.212C236.665 237.212 274.377 274.923 274.377 321.442C274.377 363.189 244.006 397.843 204.154 404.514V505.995C204.627 505.524 205.136 505.015 205.728 504.426L289.442 420.71C315.731 394.362 330.495 358.662 330.495 321.442C330.495 284.223 315.731 248.523 289.442 222.176C263.115 195.849 227.408 181.058 190.176 181.058ZM378.713 422.469C366.214 422.469 356.081 432.601 356.081 445.101C356.081 457.6 366.214 467.733 378.713 467.733H526.577C539.076 467.733 549.209 457.6 549.209 445.101C549.209 432.601 539.076 422.469 526.577 422.469H378.713ZM378.713 325.904C366.214 325.904 356.081 336.037 356.081 348.536C356.081 361.035 366.214 371.169 378.713 371.169H526.577C539.076 371.169 549.209 361.035 549.209 348.536C549.209 336.037 539.076 325.904 526.577 325.904H378.713ZM378.713 230.142C366.214 230.142 356.081 240.274 356.081 252.773C356.081 265.273 366.214 275.406 378.713 275.406H526.577C539.076 275.406 549.209 265.273 549.209 252.773C549.209 240.274 539.076 230.142 526.577 230.142H378.713ZM85.4785 99.582C72.9792 99.582 62.8458 109.715 62.8457 122.214C62.8458 134.713 72.9791 144.847 85.4785 144.847H526.053C538.552 144.846 548.684 134.713 548.685 122.214C548.684 109.715 538.552 99.5823 526.053 99.582H85.4785Z" fill="#080808"/>
</svg>
