<svg width="191" height="287" viewBox="0 0 191 287" fill="none" xmlns="http://www.w3.org/2000/svg">
<path fill-rule="evenodd" clip-rule="evenodd" d="M52.0873 0C47.2928 0 43.4061 3.77251 43.4061 8.42613V25.2783C43.4061 29.9319 47.2928 33.7044 52.0873 33.7044H138.9C143.694 33.7044 147.582 29.9319 147.582 25.2783V8.42613C147.582 3.77251 143.694 0 138.9 0H52.0873ZM0 58.9809C0 54.3273 3.88666 50.5549 8.68122 50.5549H182.307C187.101 50.5549 190.988 54.3273 190.988 58.9809V109.537C190.988 114.191 187.101 117.963 182.307 117.963H8.68122C3.88666 117.963 0 114.191 0 109.537V58.9809ZM8.68122 134.82C3.88666 134.82 0 138.592 0 143.246V193.802C0 198.455 3.88666 202.228 8.68122 202.228H182.307C187.101 202.228 190.988 198.455 190.988 193.802V143.246C190.988 138.592 187.101 134.82 182.307 134.82H8.68122ZM8.68122 219.074C3.88666 219.074 0 222.846 0 227.5V278.056C0 282.71 3.88666 286.482 8.68122 286.482H182.307C187.101 286.482 190.988 282.71 190.988 278.056V227.5C190.988 222.846 187.101 219.074 182.307 219.074H8.68122Z" fill="#C02247"/>
</svg>
